<svg width="45" height="45" viewBox="0 0 45 45" fill="none" xmlns="http://www.w3.org/2000/svg">
<rect width="45" height="45" rx="22.5" fill="#704FE6"/>
<path d="M26.8501 24.75C27.7355 24.75 28.4881 25.0599 29.1079 25.6797C29.7277 26.2995 30.0376 27.0521 30.0376 27.9375C30.0376 28.8229 29.7277 29.5755 29.1079 30.1953C28.4881 30.8151 27.7355 31.125 26.8501 31.125C25.9646 31.125 25.212 30.8151 24.5922 30.1953C23.9725 29.5755 23.6626 28.8229 23.6626 27.9375C23.6626 27.694 23.6847 27.4616 23.729 27.2402L20.3422 25.1152C19.7667 25.5801 19.1027 25.8125 18.3501 25.8125C17.4646 25.8125 16.712 25.5026 16.0922 24.8828C15.4725 24.263 15.1626 23.5104 15.1626 22.625C15.1626 21.7396 15.4725 20.987 16.0922 20.3672C16.712 19.7474 17.4646 19.4375 18.3501 19.4375C19.1027 19.4375 19.7667 19.6699 20.3422 20.1348L23.729 18.0098C23.6847 17.7884 23.6626 17.556 23.6626 17.3125C23.6626 16.4271 23.9725 15.6745 24.5922 15.0547C25.212 14.4349 25.9646 14.125 26.8501 14.125C27.7355 14.125 28.4881 14.4349 29.1079 15.0547C29.7277 15.6745 30.0376 16.4271 30.0376 17.3125C30.0376 18.1979 29.7277 18.9505 29.1079 19.5703C28.4881 20.1901 27.7355 20.5 26.8501 20.5C26.0975 20.5 25.4334 20.2676 24.8579 19.8027L21.4712 21.9277C21.5154 22.1491 21.5376 22.3815 21.5376 22.625C21.5376 22.8685 21.5154 23.1009 21.4712 23.3223L24.8579 25.4473C25.4334 24.9824 26.0975 24.75 26.8501 24.75Z" fill="white"/>
</svg>
