<svg width="7" height="10" viewBox="0 0 7 10" fill="none" xmlns="http://www.w3.org/2000/svg">
<path d="M6.14307 5.46373L1.94495 9.66185C1.80089 9.8059 1.62597 9.87793 1.42018 9.87793C1.21439 9.87793 1.03947 9.8059 0.895416 9.66185L0.216309 8.95187C0.0722555 8.80782 0.000228882 8.6329 0.000228882 8.42711C0.000228882 8.22132 0.0722555 8.0464 0.216309 7.90234L3.17969 4.93896L0.216309 1.97559C0.0722555 1.83153 0.000228882 1.65661 0.000228882 1.45082C0.000228882 1.24503 0.0722555 1.07011 0.216309 0.926056L0.895416 0.21608C1.03947 0.0720266 1.21439 0 1.42018 0C1.62597 0 1.80089 0.0720266 1.94495 0.21608L6.14307 4.4142C6.28712 4.55825 6.35915 4.73317 6.35915 4.93896C6.35915 5.14476 6.28712 5.31968 6.14307 5.46373Z" fill="white"/>
<a href="https://www.figma.com/design/Nx4sNsAeWJfmVVOXuDSmxJ?node-id=2-2">
<rect fill="black" fill-opacity="0" y="0.597656" width="7.90234" height="15.8047"/>
</a>
</svg>
