<svg width="80" height="80" viewBox="0 0 80 80" fill="none" xmlns="http://www.w3.org/2000/svg">
<rect x="0.5" y="0.5" width="79" height="79" rx="39.5" fill="#DCDFFD"/>
<rect x="0.5" y="0.5" width="79" height="79" rx="39.5" stroke="#0011BB" stroke-dasharray="3 2"/>
<path d="M54.935 41.1108C55.5513 40.3983 56.25 39.5899 56.25 38.5537C56.25 37.5174 55.5513 36.7095 54.9354 35.997C54.5654 35.5695 54.1833 35.1274 54.09 34.7779C53.9888 34.3983 54.1008 33.8049 54.2092 33.2308C54.3808 32.322 54.5758 31.2925 54.0746 30.4262C53.5667 29.5487 52.5688 29.2016 51.6879 28.895C51.1433 28.7058 50.5804 28.5095 50.3121 28.242C50.0442 27.9737 49.8483 27.4108 49.6592 26.8662C49.3529 25.9854 49.0058 24.9875 48.1275 24.4791C47.2612 23.9779 46.2308 24.1729 45.3229 24.3445C44.7488 24.4529 44.155 24.5645 43.7758 24.4633C43.4263 24.37 42.9846 23.9879 42.5571 23.6187C41.8446 23.0025 41.0362 22.3037 40 22.3037C38.9637 22.3037 38.1558 23.0025 37.4433 23.6183C37.0158 23.9883 36.5737 24.3704 36.2242 24.4637C35.8442 24.5633 35.2512 24.4533 34.6771 24.3445C33.7687 24.172 32.7387 23.9779 31.8725 24.4791C30.995 24.987 30.6479 25.985 30.3412 26.8658C30.1521 27.4104 29.9558 27.9733 29.6883 28.2416C29.42 28.5095 28.8571 28.7054 28.3125 28.8945C27.4317 29.2008 26.4337 29.5479 25.9254 30.4262C25.4246 31.292 25.6192 32.3224 25.7908 33.2308C25.8996 33.8049 26.0113 34.3983 25.9096 34.7779C25.8163 35.1274 25.4342 35.5691 25.065 35.9966C24.4488 36.7091 23.75 37.5174 23.75 38.5537C23.75 39.5899 24.4487 40.3979 25.0646 41.1104C25.4346 41.5379 25.8167 41.9799 25.91 42.3295C26.0112 42.7091 25.8992 43.3024 25.7908 43.8766C25.6192 44.7854 25.4242 45.8149 25.9254 46.6812C26.4333 47.5587 27.4313 47.9058 28.3121 48.2124C28.8567 48.4016 29.4196 48.5979 29.6879 48.8654C29.7204 48.8979 29.7517 48.9349 29.7821 48.9758L26.7054 58.7195C26.6258 58.9729 26.6708 59.2491 26.8279 59.4633C26.985 59.677 27.2342 59.8037 27.5 59.8037H35C35.3633 59.8037 35.6854 59.5683 35.7946 59.2216L37.5704 53.5983C38.2521 54.1849 39.0246 54.8037 40 54.8037C40.9758 54.8037 41.7479 54.1845 42.4296 53.5979L44.2054 59.2212C44.3146 59.5683 44.6362 59.8037 45 59.8037H52.5C52.7658 59.8037 53.015 59.677 53.1721 59.4633C53.3292 59.2487 53.3742 58.9729 53.2946 58.7195L50.2179 48.9758C50.2483 48.9354 50.2796 48.8983 50.3117 48.8658C50.58 48.5979 51.1429 48.402 51.6875 48.2129C52.5683 47.9066 53.5662 47.5595 54.0746 46.6812C54.5754 45.8154 54.3808 44.7849 54.2092 43.8766C54.1004 43.3024 53.9888 42.7091 54.0904 42.3295C54.1833 41.9799 54.5654 41.5379 54.935 41.1108ZM34.3892 58.137H28.6371L30.78 51.3512C31.0283 51.8633 31.3583 52.3304 31.8725 52.6283C32.7387 53.1295 33.7692 52.9341 34.6771 52.7629C35.2079 52.6624 35.7475 52.5666 36.1275 52.632L34.3892 58.137ZM45.6108 58.137L43.8725 52.6316C44.2521 52.567 44.7917 52.662 45.3229 52.7624C46.2313 52.9345 47.2612 53.1291 48.1275 52.6279C48.6421 52.3304 48.9717 51.8629 49.22 51.3504L51.3629 58.137H45.6108ZM53.6742 40.0208C53.1812 40.5904 52.6721 41.1795 52.48 41.8991C52.2804 42.6454 52.4283 43.4287 52.5712 44.1858C52.695 44.8399 52.8229 45.5166 52.6317 45.8466C52.4338 46.1883 51.7762 46.4174 51.1404 46.6383C50.4183 46.8895 49.6717 47.1491 49.1337 47.6874C48.5954 48.2254 48.3358 48.972 48.0846 49.6941C47.8633 50.3299 47.6346 50.9874 47.2929 51.1854C46.9629 51.3762 46.2862 51.2487 45.6329 51.1249C44.8746 50.9812 44.0917 50.8337 43.3458 51.0329C42.6258 51.2254 42.0367 51.7349 41.4671 52.2279C40.9496 52.6754 40.4158 53.137 40 53.137C39.5842 53.137 39.05 52.6749 38.5329 52.2279C37.9633 51.7349 37.3742 51.2258 36.6546 51.0337C36.3942 50.9637 36.1292 50.9366 35.8629 50.9366C35.3654 50.9366 34.8613 51.032 34.3679 51.1249C33.7129 51.2487 33.0367 51.3762 32.7071 51.1854C32.3654 50.9874 32.1362 50.3299 31.9154 49.6941C31.6642 48.972 31.4046 48.2254 30.8663 47.6874C30.3283 47.1491 29.5817 46.8895 28.8596 46.6383C28.2238 46.417 27.5663 46.1883 27.3683 45.8466C27.1771 45.5166 27.3054 44.8404 27.4288 44.1866C27.5721 43.4291 27.72 42.6458 27.5208 41.8995C27.3283 41.1795 26.8187 40.5904 26.3258 40.0208C25.8783 39.5033 25.4167 38.9695 25.4167 38.5537C25.4167 38.1379 25.8788 37.6037 26.3258 37.0866C26.8187 36.517 27.3279 35.9279 27.52 35.2083C27.7196 34.462 27.5717 33.6787 27.4288 32.9216C27.305 32.2674 27.1771 31.5908 27.3683 31.2608C27.5663 30.9191 28.2238 30.69 28.8596 30.4691C29.5817 30.2179 30.3283 29.9583 30.8663 29.42C31.4046 28.882 31.6642 28.1354 31.9154 27.4133C32.1367 26.7775 32.3654 26.12 32.7071 25.922C33.0363 25.7308 33.7133 25.8587 34.3671 25.9825C35.125 26.1262 35.9083 26.2737 36.6542 26.0745C37.3742 25.882 37.9633 25.3725 38.5329 24.8795C39.0504 24.432 39.5842 23.9704 40 23.9704C40.4158 23.9704 40.95 24.4325 41.4671 24.8795C42.0367 25.3725 42.6258 25.8816 43.3454 26.0737C44.0921 26.2737 44.875 26.1258 45.6321 25.9825C46.2862 25.8583 46.9629 25.7308 47.2929 25.922C47.6346 26.12 47.8637 26.7775 48.0846 27.4133C48.3358 28.1354 48.5954 28.882 49.1337 29.42C49.6717 29.9583 50.4183 30.2179 51.1404 30.4691C51.7762 30.6904 52.4338 30.9191 52.6317 31.2608C52.8229 31.5908 52.6946 32.267 52.5712 32.9208C52.4279 33.6783 52.28 34.4616 52.4792 35.2079C52.6717 35.9279 53.1812 36.517 53.6742 37.0866C54.1217 37.6041 54.5833 38.1379 54.5833 38.5537C54.5833 38.9695 54.1213 39.5037 53.6742 40.0208ZM40 28.137C34.2562 28.137 29.5833 32.8099 29.5833 38.5537C29.5833 44.2974 34.2562 48.9704 40 48.9704C45.7437 48.9704 50.4167 44.2974 50.4167 38.5537C50.4167 32.8099 45.7437 28.137 40 28.137ZM40 47.3037C35.1754 47.3037 31.25 43.3783 31.25 38.5537C31.25 33.7291 35.1754 29.8037 40 29.8037C44.8246 29.8037 48.75 33.7291 48.75 38.5537C48.75 43.3783 44.8246 47.3037 40 47.3037ZM45.1258 36.1324L42.1108 35.6724L40.7546 32.7829C40.6171 32.4904 40.3229 32.3037 40 32.3037C39.6771 32.3037 39.3829 32.4904 39.2454 32.7829L37.8892 35.6724L34.8742 36.1324C34.5654 36.1795 34.3092 36.3958 34.2096 36.692C34.11 36.9883 34.185 37.3149 34.4033 37.5383L36.5854 39.7749L35.8542 42.9495C35.7812 43.2658 35.8983 43.5949 36.1542 43.7941C36.41 43.9937 36.7579 44.0258 37.0467 43.8783L40 42.3649L42.9533 43.8787C43.0733 43.9404 43.2033 43.9704 43.3333 43.9704C43.5154 43.9704 43.6962 43.9108 43.8454 43.7945C44.1008 43.5949 44.2183 43.2658 44.1454 42.9499L43.4142 39.7754L45.5962 37.5387C45.8142 37.3154 45.8892 36.9887 45.79 36.6924C45.6908 36.3962 45.4346 36.1799 45.1258 36.1324ZM41.9033 38.937C41.705 39.1399 41.6242 39.4299 41.6875 39.7062L42.1187 41.5787L40.3796 40.687C40.2604 40.6262 40.1296 40.5954 39.9996 40.5954C39.8692 40.5954 39.7388 40.6258 39.6196 40.687L37.8804 41.5787L38.3117 39.7062C38.375 39.4299 38.2942 39.1404 38.0958 38.937L36.7283 37.5358L38.58 37.2529C38.8546 37.2104 39.0908 37.0345 39.2088 36.7829L40 35.0983L40.7904 36.7829C40.9083 37.0345 41.1446 37.2104 41.4192 37.2529L43.2708 37.5358L41.9033 38.937Z" fill="#0011BB"/>
</svg>
