<svg width="80" height="80" viewBox="0 0 80 80" fill="none" xmlns="http://www.w3.org/2000/svg">
<rect x="0.5" y="0.5" width="79" height="79" rx="39.5" fill="#FFECD9"/>
<rect x="0.5" y="0.5" width="79" height="79" rx="39.5" stroke="#D16900" stroke-dasharray="3 2"/>
<path d="M58.5688 52.3545H21.0694C19.9977 52.3545 19.1328 51.4897 19.1328 50.418V23.7388C19.1328 22.6765 20.0071 21.8022 21.0694 21.8022H58.5688C59.6404 21.8022 60.5053 22.6671 60.5053 23.7388V50.418C60.5053 51.4897 59.6404 52.3545 58.5688 52.3545ZM21.0694 22.7423C20.5241 22.7423 20.0729 23.1936 20.0729 23.7388V50.418C20.0729 50.9726 20.5241 51.4145 21.0694 51.4145H58.5688C59.1234 51.4145 59.5652 50.9632 59.5652 50.418V23.7388C59.5652 23.1936 59.114 22.7423 58.5688 22.7423H21.0694Z" fill="#D16900"/>
<path d="M57.516 49.8353H22.1224C21.8592 49.8353 21.6523 49.6285 21.6523 49.3652V24.7918C21.6523 24.5286 21.8592 24.3218 22.1224 24.3218H57.5066C57.7699 24.3218 57.9767 24.5286 57.9767 24.7918V49.3652C57.9861 49.6285 57.7699 49.8353 57.516 49.8353ZM22.5924 48.8952H57.0366V25.2618H22.5924V48.8952Z" fill="#D16900"/>
<path d="M34.5688 59.0949C34.4466 59.0949 34.315 59.0479 34.221 58.9445C34.0424 58.7565 34.0518 58.4557 34.2492 58.2771C37.2668 55.4756 36.0165 52.1948 35.9601 52.0538C35.8661 51.8094 35.9789 51.5368 36.2234 51.4427C36.4678 51.3487 36.7404 51.4615 36.8344 51.706C36.8532 51.7436 37.2386 52.7306 37.1916 54.1125C37.1446 55.391 36.7122 57.2618 34.8885 58.9633C34.7945 59.0573 34.6816 59.0949 34.5688 59.0949Z" fill="#D16900"/>
<path d="M45.0701 59.0952C44.9573 59.0952 44.8445 59.0576 44.7505 58.973C42.9268 57.2808 42.4943 55.4007 42.4473 54.1222C42.4003 52.7403 42.7858 51.7532 42.8046 51.7156C42.8986 51.4712 43.1712 51.3584 43.4156 51.4524C43.66 51.5464 43.7728 51.819 43.6788 52.0635C43.6224 52.2045 42.3815 55.4853 45.3898 58.2867C45.5778 58.4653 45.5872 58.7568 45.418 58.9542C45.3239 59.0482 45.2017 59.0952 45.0701 59.0952Z" fill="#D16900"/>
<path d="M49.2533 61.8013H30.3861C30.1228 61.8013 29.916 61.5945 29.916 61.3312V59.9775C29.916 58.9717 30.7339 58.1538 31.7398 58.1538H47.8996C48.9054 58.1538 49.7233 58.9717 49.7233 59.9775V61.3312C49.7233 61.5851 49.5165 61.8013 49.2533 61.8013ZM30.8561 60.8612H48.7832V59.9775C48.7832 59.4887 48.3884 59.0939 47.8996 59.0939H31.7398C31.2509 59.0939 30.8561 59.4887 30.8561 59.9775V60.8612Z" fill="#D16900"/>
<path d="M31.2696 43.6965C31.185 43.6965 31.1004 43.6777 31.0252 43.6307L25.6104 40.3875C25.4694 40.3029 25.3848 40.1525 25.3848 39.9833V33.8446C25.3848 33.6754 25.4788 33.5156 25.6198 33.431C25.7608 33.3464 25.9488 33.3464 26.0898 33.4404L31.5046 36.6836C31.6456 36.7682 31.7302 36.9186 31.7302 37.0878V43.2265C31.7302 43.3957 31.6362 43.5555 31.4952 43.6401C31.4294 43.6777 31.3448 43.6965 31.2696 43.6965ZM26.3248 39.72L30.7996 42.3992V37.3511L26.3248 34.6719V39.72Z" fill="#D16900"/>
<path d="M31.2689 43.6973C31.1843 43.6973 31.1091 43.6785 31.0338 43.6409C30.8834 43.5563 30.7988 43.4059 30.7988 43.2273V37.0886C30.7988 36.9194 30.8834 36.769 31.0244 36.6844L36.4393 33.4411C36.5803 33.3565 36.7683 33.3565 36.9093 33.4317C37.0597 33.5163 37.1443 33.6761 37.1443 33.8454V39.984C37.1443 40.1532 37.0597 40.3036 36.9187 40.3883L31.5039 43.6315C31.4381 43.6785 31.3535 43.6973 31.2689 43.6973ZM31.7389 37.3518V42.4L36.2136 39.7208V34.6726L31.7389 37.3518Z" fill="#D16900"/>
<path d="M25.8544 34.3147C25.6852 34.3147 25.5254 34.2301 25.4408 34.0703C25.3185 33.8447 25.4031 33.5533 25.6288 33.4311L31.0436 30.5169C31.1846 30.4416 31.3538 30.4416 31.4854 30.5169L36.9002 33.4311C37.1258 33.5533 37.2104 33.8353 37.0882 34.0703C36.966 34.3053 36.684 34.3805 36.449 34.2583L31.2598 31.4663L26.0706 34.2583C26.0048 34.2959 25.9296 34.3147 25.8544 34.3147Z" fill="#D16900"/>
<path d="M35.3305 29.1076H27.2083C26.9451 29.1076 26.7383 28.9007 26.7383 28.6375C26.7383 28.3743 26.9451 28.1675 27.2083 28.1675H35.3305C35.5937 28.1675 35.8006 28.3743 35.8006 28.6375C35.8006 28.9007 35.5937 29.1076 35.3305 29.1076Z" fill="#D16900"/>
<path d="M33.9669 30.4701C33.8447 30.4701 33.7225 30.4231 33.6379 30.3291C33.4593 30.1505 33.4593 29.8497 33.6379 29.6617L34.6719 28.6276L33.6379 27.5935C33.4593 27.4149 33.4593 27.1141 33.6379 26.9261C33.8165 26.7381 34.1173 26.7475 34.3053 26.9261L35.659 28.308C35.8376 28.4866 35.8376 28.7874 35.659 28.9754L34.2959 30.3385C34.2019 30.4231 34.0891 30.4701 33.9669 30.4701Z" fill="#D16900"/>
<path d="M28.5722 30.4709C28.45 30.4709 28.3278 30.4239 28.2432 30.3299L26.8801 28.9668C26.7014 28.7881 26.7014 28.4873 26.8801 28.2993L28.2432 26.9362C28.4218 26.7576 28.7226 26.7576 28.9106 26.9362C29.0892 27.1148 29.0892 27.4156 28.9106 27.6037L27.8765 28.6377L28.9106 29.6718C29.0892 29.8504 29.0892 30.1512 28.9106 30.3393C28.8166 30.4239 28.6944 30.4709 28.5722 30.4709Z" fill="#D16900"/>
<path d="M35.3305 46.0002H27.2083C26.9451 46.0002 26.7383 45.7934 26.7383 45.5302C26.7383 45.267 26.9451 45.0601 27.2083 45.0601H35.3305C35.5937 45.0601 35.8006 45.267 35.8006 45.5302C35.8006 45.7934 35.5937 46.0002 35.3305 46.0002Z" fill="#D16900"/>
<path d="M33.9669 47.3623C33.8447 47.3623 33.7225 47.3153 33.6379 47.2213C33.4593 47.0333 33.4593 46.7419 33.6379 46.5538L34.6719 45.5198L33.6379 44.4857C33.4593 44.2977 33.4593 44.0063 33.6379 43.8182C33.8165 43.6302 34.1173 43.6302 34.3053 43.8182L35.6684 45.1813C35.847 45.3694 35.847 45.6608 35.6684 45.8488L34.3053 47.2119C34.2019 47.3153 34.0891 47.3623 33.9669 47.3623Z" fill="#D16900"/>
<path d="M28.5722 47.3627C28.45 47.3627 28.3278 47.3157 28.2432 47.2217L26.8801 45.8586C26.7014 45.6705 26.7014 45.3791 26.8801 45.1911L28.2432 43.828C28.4218 43.64 28.7226 43.64 28.9106 43.828C29.0892 44.016 29.0892 44.3074 28.9106 44.4955L27.8765 45.5295L28.9106 46.5636C29.0892 46.7516 29.0892 47.043 28.9106 47.2311C28.8166 47.3157 28.6944 47.3627 28.5722 47.3627Z" fill="#D16900"/>
<path d="M42.0507 47.3622H40.4808C39.7945 47.3622 39.2305 46.8076 39.2305 46.1213V31.3152C39.2305 31.052 39.4373 30.8452 39.7005 30.8452H42.8215C43.0848 30.8452 43.2916 31.052 43.2916 31.3152V46.1119C43.301 46.7982 42.7369 47.3622 42.0507 47.3622ZM40.1799 31.7853V46.1119C40.1799 46.2812 40.321 46.4128 40.4902 46.4128H42.0507C42.2199 46.4128 42.3515 46.2718 42.3515 46.1119V31.7853H40.1799Z" fill="#D16900"/>
<path d="M42.8309 31.7866C42.6429 31.7866 42.4643 31.6737 42.3891 31.4857L41.2704 28.5809L40.1517 31.4857C40.0577 31.7302 39.7851 31.8524 39.5406 31.7584C39.2962 31.6643 39.174 31.3917 39.268 31.1473L40.8285 27.105C40.8943 26.9264 41.073 26.8042 41.2704 26.8042C41.4678 26.8042 41.637 26.9264 41.7122 27.105L43.2727 31.1473C43.3667 31.3917 43.2445 31.6643 43.0001 31.7584C42.9437 31.7772 42.8873 31.7866 42.8309 31.7866Z" fill="#D16900"/>
<path d="M42.8313 44.59H39.7103C39.447 44.59 39.2402 44.3831 39.2402 44.1199C39.2402 43.8567 39.447 43.6499 39.7103 43.6499H42.8313C43.0945 43.6499 43.3013 43.8567 43.3013 44.1199C43.3013 44.3831 43.0851 44.59 42.8313 44.59Z" fill="#D16900"/>
<path d="M53.7841 28.9747H45.6243C45.3611 28.9747 45.1543 28.7679 45.1543 28.5047C45.1543 28.2415 45.3611 28.0347 45.6243 28.0347H53.7841C54.0474 28.0347 54.2542 28.2415 54.2542 28.5047C54.2542 28.7679 54.0474 28.9747 53.7841 28.9747Z" fill="#D16900"/>
<path d="M53.7841 31.8321H45.6243C45.3611 31.8321 45.1543 31.6253 45.1543 31.3621C45.1543 31.0989 45.3611 30.8921 45.6243 30.8921H53.7841C54.0474 30.8921 54.2542 31.0989 54.2542 31.3621C54.2542 31.6253 54.0474 31.8321 53.7841 31.8321Z" fill="#D16900"/>
<path d="M53.7841 34.6896H45.6243C45.3611 34.6896 45.1543 34.4828 45.1543 34.2195C45.1543 33.9563 45.3611 33.7495 45.6243 33.7495H53.7841C54.0474 33.7495 54.2542 33.9563 54.2542 34.2195C54.2542 34.4828 54.0474 34.6896 53.7841 34.6896Z" fill="#D16900"/>
<path d="M53.7841 37.5489H45.6243C45.3611 37.5489 45.1543 37.3421 45.1543 37.0789C45.1543 36.8157 45.3611 36.6089 45.6243 36.6089H53.7841C54.0474 36.6089 54.2542 36.8157 54.2542 37.0789C54.2542 37.3421 54.0474 37.5489 53.7841 37.5489Z" fill="#D16900"/>
<path d="M53.7841 40.4064H45.6243C45.3611 40.4064 45.1543 40.1995 45.1543 39.9363C45.1543 39.6731 45.3611 39.4663 45.6243 39.4663H53.7841C54.0474 39.4663 54.2542 39.6731 54.2542 39.9363C54.2542 40.1995 54.0474 40.4064 53.7841 40.4064Z" fill="#D16900"/>
<path d="M53.7841 43.2638H45.6243C45.3611 43.2638 45.1543 43.057 45.1543 42.7938C45.1543 42.5305 45.3611 42.3237 45.6243 42.3237H53.7841C54.0474 42.3237 54.2542 42.5305 54.2542 42.7938C54.2542 43.057 54.0474 43.2638 53.7841 43.2638Z" fill="#D16900"/>
<path d="M53.7841 46.1213H45.6243C45.3611 46.1213 45.1543 45.9145 45.1543 45.6513C45.1543 45.3881 45.3611 45.1812 45.6243 45.1812H53.7841C54.0474 45.1812 54.2542 45.3881 54.2542 45.6513C54.2542 45.9145 54.0474 46.1213 53.7841 46.1213Z" fill="#D16900"/>
</svg>
