<svg width="80" height="80" viewBox="0 0 80 80" fill="none" xmlns="http://www.w3.org/2000/svg">
<rect x="0.5" y="0.5" width="79" height="79" rx="39.5" fill="#DCF5FF"/>
<rect x="0.5" y="0.5" width="79" height="79" rx="39.5" stroke="#00A9ED" stroke-dasharray="3 2"/>
<path d="M56.0413 54.5952H51.25C50.9864 53.6931 50.4375 52.9008 49.6856 52.3371C48.9336 51.7734 48.0192 51.4688 47.0794 51.4688C46.1396 51.4688 45.2252 51.7734 44.4732 52.3371C43.7212 52.9008 43.1723 53.6931 42.9087 54.5952H22.5C22.1685 54.5952 21.8505 54.7269 21.6161 54.9613C21.3817 55.1957 21.25 55.5136 21.25 55.8452C21.25 56.1767 21.3817 56.4946 21.6161 56.7291C21.8505 56.9635 22.1685 57.0952 22.5 57.0952H42.9125C43.1771 57.9957 43.7263 58.7865 44.4777 59.3489C45.2292 59.9113 46.1426 60.2152 47.0813 60.2152C48.0199 60.2152 48.9333 59.9113 49.6848 59.3489C50.4362 58.7865 50.9854 57.9957 51.25 57.0952H56.0375C56.369 57.0952 56.687 56.9635 56.9214 56.7291C57.1558 56.4946 57.2875 56.1767 57.2875 55.8452C57.2875 55.5136 57.1558 55.1957 56.9214 54.9613C56.687 54.7269 56.369 54.5952 56.0375 54.5952H56.0413ZM47.0837 57.7202C46.7129 57.7202 46.3504 57.6102 46.0421 57.4042C45.7337 57.1981 45.4934 56.9053 45.3515 56.5627C45.2096 56.2201 45.1724 55.8432 45.2448 55.4795C45.3171 55.1158 45.4957 54.7816 45.7579 54.5193C46.0201 54.2571 46.3542 54.0785 46.718 54.0062C47.0817 53.9338 47.4587 53.971 47.8013 54.1129C48.1439 54.2548 48.4367 54.4952 48.6428 54.8036C48.8488 55.1119 48.9587 55.4743 48.9587 55.8452C48.9587 56.3424 48.7612 56.8195 48.4096 57.1711C48.0579 57.5227 47.581 57.7202 47.0837 57.7202Z" fill="#00A9ED"/>
<path d="M54.825 22.7202H25.175C24.1343 22.7212 23.1366 23.1351 22.4007 23.8709C21.6648 24.6068 21.251 25.6045 21.25 26.6452V46.2952C21.251 47.3359 21.6648 48.3336 22.4007 49.0695C23.1366 49.8054 24.1343 50.2192 25.175 50.2202H54.825C55.8657 50.2192 56.8634 49.8054 57.5993 49.0695C58.3352 48.3336 58.749 47.3359 58.75 46.2952V26.6452C58.749 25.6045 58.3352 24.6068 57.5993 23.8709C56.8634 23.1351 55.8657 22.7212 54.825 22.7202ZM56.25 46.2952C56.2497 46.673 56.0994 47.0353 55.8323 47.3025C55.5651 47.5696 55.2028 47.7199 54.825 47.7202H25.175C24.7972 47.7199 24.4349 47.5696 24.1677 47.3025C23.9006 47.0353 23.7503 46.673 23.75 46.2952V26.6452C23.7503 26.2674 23.9006 25.9051 24.1677 25.638C24.4349 25.3708 24.7972 25.2205 25.175 25.2202H54.825C55.2028 25.2205 55.5651 25.3708 55.8323 25.638C56.0994 25.9051 56.2497 26.2674 56.25 26.6452V46.2952Z" fill="#00A9ED"/>
<path d="M46.9125 35.4102L36.9125 29.1602C36.7233 29.042 36.5059 28.9765 36.2828 28.9706C36.0598 28.9648 35.8392 29.0187 35.644 29.1269C35.4489 29.2351 35.2862 29.3935 35.173 29.5858C35.0597 29.778 35 29.9971 35 30.2202V42.7202C35 42.9433 35.0597 43.1624 35.173 43.3547C35.2862 43.5469 35.4489 43.7053 35.644 43.8135C35.8392 43.9217 36.0598 43.9756 36.2828 43.9698C36.5059 43.9639 36.7233 43.8985 36.9125 43.7802L46.9125 37.5302C47.0934 37.4181 47.2427 37.2617 47.3462 37.0757C47.4497 36.8898 47.504 36.6805 47.504 36.4677C47.504 36.2549 47.4497 36.0456 47.3462 35.8597C47.2427 35.6737 47.0934 35.5173 46.9125 35.4052V35.4102ZM37.5 40.4702V32.4702L43.8913 36.4702L37.5 40.4702Z" fill="#00A9ED"/>
</svg><svg width="80" height="80" viewBox="0 0 80 80" fill="none" xmlns="http://www.w3.org/2000/svg">
<rect x="0.5" y="0.5" width="79" height="79" rx="39.5" fill="#DCF5FF"/>
<rect x="0.5" y="0.5" width="79" height="79" rx="39.5" stroke="#00A9ED" stroke-dasharray="3 2"/>
<path d="M56.0413 54.5952H51.25C50.9864 53.6931 50.4375 52.9008 49.6856 52.3371C48.9336 51.7734 48.0192 51.4688 47.0794 51.4688C46.1396 51.4688 45.2252 51.7734 44.4732 52.3371C43.7212 52.9008 43.1723 53.6931 42.9087 54.5952H22.5C22.1685 54.5952 21.8505 54.7269 21.6161 54.9613C21.3817 55.1957 21.25 55.5136 21.25 55.8452C21.25 56.1767 21.3817 56.4946 21.6161 56.7291C21.8505 56.9635 22.1685 57.0952 22.5 57.0952H42.9125C43.1771 57.9957 43.7263 58.7865 44.4777 59.3489C45.2292 59.9113 46.1426 60.2152 47.0813 60.2152C48.0199 60.2152 48.9333 59.9113 49.6848 59.3489C50.4362 58.7865 50.9854 57.9957 51.25 57.0952H56.0375C56.369 57.0952 56.687 56.9635 56.9214 56.7291C57.1558 56.4946 57.2875 56.1767 57.2875 55.8452C57.2875 55.5136 57.1558 55.1957 56.9214 54.9613C56.687 54.7269 56.369 54.5952 56.0375 54.5952H56.0413ZM47.0837 57.7202C46.7129 57.7202 46.3504 57.6102 46.0421 57.4042C45.7337 57.1981 45.4934 56.9053 45.3515 56.5627C45.2096 56.2201 45.1724 55.8432 45.2448 55.4795C45.3171 55.1158 45.4957 54.7816 45.7579 54.5193C46.0201 54.2571 46.3542 54.0785 46.718 54.0062C47.0817 53.9338 47.4587 53.971 47.8013 54.1129C48.1439 54.2548 48.4367 54.4952 48.6428 54.8036C48.8488 55.1119 48.9587 55.4743 48.9587 55.8452C48.9587 56.3424 48.7612 56.8195 48.4096 57.1711C48.0579 57.5227 47.581 57.7202 47.0837 57.7202Z" fill="#00A9ED"/>
<path d="M54.825 22.7202H25.175C24.1343 22.7212 23.1366 23.1351 22.4007 23.8709C21.6648 24.6068 21.251 25.6045 21.25 26.6452V46.2952C21.251 47.3359 21.6648 48.3336 22.4007 49.0695C23.1366 49.8054 24.1343 50.2192 25.175 50.2202H54.825C55.8657 50.2192 56.8634 49.8054 57.5993 49.0695C58.3352 48.3336 58.749 47.3359 58.75 46.2952V26.6452C58.749 25.6045 58.3352 24.6068 57.5993 23.8709C56.8634 23.1351 55.8657 22.7212 54.825 22.7202ZM56.25 46.2952C56.2497 46.673 56.0994 47.0353 55.8323 47.3025C55.5651 47.5696 55.2028 47.7199 54.825 47.7202H25.175C24.7972 47.7199 24.4349 47.5696 24.1677 47.3025C23.9006 47.0353 23.7503 46.673 23.75 46.2952V26.6452C23.7503 26.2674 23.9006 25.9051 24.1677 25.638C24.4349 25.3708 24.7972 25.2205 25.175 25.2202H54.825C55.2028 25.2205 55.5651 25.3708 55.8323 25.638C56.0994 25.9051 56.2497 26.2674 56.25 26.6452V46.2952Z" fill="#00A9ED"/>
<path d="M46.9125 35.4102L36.9125 29.1602C36.7233 29.042 36.5059 28.9765 36.2828 28.9706C36.0598 28.9648 35.8392 29.0187 35.644 29.1269C35.4489 29.2351 35.2862 29.3935 35.173 29.5858C35.0597 29.778 35 29.9971 35 30.2202V42.7202C35 42.9433 35.0597 43.1624 35.173 43.3547C35.2862 43.5469 35.4489 43.7053 35.644 43.8135C35.8392 43.9217 36.0598 43.9756 36.2828 43.9698C36.5059 43.9639 36.7233 43.8985 36.9125 43.7802L46.9125 37.5302C47.0934 37.4181 47.2427 37.2617 47.3462 37.0757C47.4497 36.8898 47.504 36.6805 47.504 36.4677C47.504 36.2549 47.4497 36.0456 47.3462 35.8597C47.2427 35.6737 47.0934 35.5173 46.9125 35.4052V35.4102ZM37.5 40.4702V32.4702L43.8913 36.4702L37.5 40.4702Z" fill="#00A9ED"/>
</svg>
